<svg version="1.1" id="Layer_1" xmlns="http://www.w3.org/2000/svg" xmlns:xlink="http://www.w3.org/1999/xlink" x="0px" y="0px"
	 width="100%" viewBox="0 0 512 512" enable-background="new 0 0 512 512" xml:space="preserve">
<path fill="#000000" opacity="1.000000" stroke="none" 
	d="
M344.000000,513.000000 
	C229.361191,513.000000 115.222374,513.000000 1.041779,513.000000 
	C1.041779,342.402832 1.041779,171.805649 1.041779,1.104233 
	C171.555481,1.104233 342.111053,1.104233 512.833313,1.104233 
	C512.833313,171.666534 512.833313,342.333252 512.833313,513.000000 
	C456.805573,513.000000 400.652802,513.000000 344.000000,513.000000 
M333.751648,137.255478 
	C333.751648,137.255478 333.514435,137.176605 333.164978,136.656631 
	C332.124115,135.399567 331.083252,134.142502 329.767334,132.283615 
	C326.549683,129.174911 323.332062,126.066231 319.819641,122.339935 
	C313.999390,118.133865 308.413055,113.548393 302.317200,109.789291 
	C279.443420,95.683891 254.330917,91.102234 228.098587,95.255638 
	C198.920670,99.875404 175.013458,114.375656 156.731522,137.774017 
	C139.921188,159.288910 132.206314,183.752716 132.814484,211.621796 
	C114.548088,222.129303 100.390442,236.828690 90.479324,255.241287 
	C77.090286,280.115082 73.508865,306.654846 80.059952,334.222198 
	C87.803932,366.809326 106.995544,391.115417 135.970901,407.276855 
	C156.301361,418.616455 178.342743,423.020264 201.834457,420.168732 
	C214.821198,418.592346 227.112610,415.236237 238.736984,409.550201 
	C245.728806,406.130157 252.261093,401.770630 259.627594,398.153809 
	C261.419891,399.282227 263.189606,400.448517 265.007904,401.533386 
	C287.912689,415.199219 312.805328,419.881439 338.882080,415.752563 
	C368.278595,411.097961 392.336975,396.451569 410.605255,372.835480 
	C430.203888,347.499542 437.316376,318.599823 432.755585,287.164856 
	C430.125244,269.035522 423.235016,252.151871 411.795074,237.583374 
	C399.118225,221.439621 384.016724,208.236588 364.510773,200.733215 
	C362.154938,199.826981 360.052917,198.260849 357.737030,196.303497 
	C357.435791,195.202179 357.134583,194.100876 356.962494,192.337173 
	C356.919434,191.891434 356.876373,191.445679 356.966217,190.322876 
	C356.679718,189.532120 356.393219,188.741364 356.014465,187.299347 
	C355.954071,186.866196 355.893707,186.433060 355.964264,185.198105 
	C355.642273,183.782883 355.345337,182.361420 354.994415,180.953415 
	C351.430237,166.654327 346.162048,153.138031 336.751343,141.255264 
	C336.751343,141.255264 336.513245,141.175797 336.181702,140.687546 
	C335.397308,139.622803 334.612915,138.558060 333.751648,137.255478 
z"/>
<path fill="#CE834A" opacity="1.000000" stroke="none" 
	d="
M258.999939,397.833374 
	C252.261093,401.770630 245.728806,406.130157 238.736984,409.550201 
	C227.112610,415.236237 214.821198,418.592346 201.834457,420.168732 
	C178.342743,423.020264 156.301361,418.616455 135.970901,407.276855 
	C106.995544,391.115417 87.803932,366.809326 80.059952,334.222198 
	C73.508865,306.654846 77.090286,280.115082 90.479324,255.241287 
	C100.390442,236.828690 114.548088,222.129303 133.290268,211.148300 
	C148.922028,202.246536 165.185455,197.140533 182.441666,196.135666 
	C205.519913,194.791733 227.203232,200.010040 247.142654,211.986450 
	C249.230255,213.240372 251.601334,214.022293 253.924591,215.367188 
	C254.473038,216.369476 254.847946,217.120270 255.416061,217.672165 
	C263.105865,225.142120 271.739410,231.854401 278.360840,240.170334 
	C298.329254,265.248840 305.490906,294.310883 300.701752,325.790710 
	C297.008179,350.069092 286.331848,371.283051 268.186798,388.355957 
	C264.985901,391.367767 262.055328,394.666901 258.999939,397.833374 
z"/>
<path fill="#568CA1" opacity="1.000000" stroke="none" 
	d="
M259.313782,397.993591 
	C262.055328,394.666901 264.985901,391.367767 268.186798,388.355957 
	C286.331848,371.283051 297.008179,350.069092 300.701752,325.790710 
	C305.490906,294.310883 298.329254,265.248840 278.360840,240.170334 
	C271.739410,231.854401 263.105865,225.142120 255.416061,217.672165 
	C254.847946,217.120270 254.473038,216.369476 254.144531,215.101990 
	C282.522156,193.912277 313.684570,187.455551 347.785583,195.109955 
	C351.108826,195.855896 354.482849,196.375748 357.833282,197.000565 
	C360.052917,198.260849 362.154938,199.826981 364.510773,200.733215 
	C384.016724,208.236588 399.118225,221.439621 411.795074,237.583374 
	C423.235016,252.151871 430.125244,269.035522 432.755585,287.164856 
	C437.316376,318.599823 430.203888,347.499542 410.605255,372.835480 
	C392.336975,396.451569 368.278595,411.097961 338.882080,415.752563 
	C312.805328,419.881439 287.912689,415.199219 265.007904,401.533386 
	C263.189606,400.448517 261.419891,399.282227 259.313782,397.993591 
z"/>
<path fill="#AD5B86" opacity="1.000000" stroke="none" 
	d="
M355.833344,185.999908 
	C355.893707,186.433060 355.954071,186.866196 355.906860,187.853180 
	C356.143951,189.271317 356.488647,190.135620 356.833344,190.999939 
	C356.876373,191.445679 356.919434,191.891434 356.501404,192.650604 
	C346.539917,191.314499 337.097931,188.876953 327.527893,188.167419 
	C301.765869,186.257401 278.628326,194.414368 257.445587,208.538437 
	C253.961349,210.861633 251.512405,210.954910 248.049561,208.747116 
	C230.917908,197.824570 212.016815,192.473984 191.780167,192.045685 
	C174.373596,191.677292 157.679092,194.898911 142.099960,203.042953 
	C138.941147,204.694244 136.956161,203.531998 137.328033,200.215591 
	C139.124252,184.196808 142.449966,168.400024 151.160446,154.717789 
	C157.267654,145.124680 164.787918,136.239990 172.701721,128.026077 
	C191.978882,108.017876 216.650986,99.290848 243.724686,98.228188 
	C269.243652,97.226540 292.612457,105.087273 313.501160,120.012482 
	C315.424896,121.387016 317.896973,121.994087 320.114441,122.957535 
	C323.332062,126.066231 326.549683,129.174911 329.934082,132.955292 
	C331.238678,134.810196 332.376556,135.993408 333.514435,137.176605 
	C333.514435,137.176605 333.751648,137.255478 333.715973,137.735535 
	C334.624603,139.202332 335.568939,140.189072 336.513245,141.175797 
	C336.513245,141.175797 336.751343,141.255264 336.711151,141.745789 
	C337.362946,144.048737 337.798584,146.016693 338.788513,147.648361 
	C345.286774,158.359528 350.388702,169.643616 353.513824,181.810822 
	C353.898163,183.307068 355.041656,184.608307 355.833344,185.999908 
z"/>
<path fill="#AD5B86" opacity="1.000000" stroke="none" 
	d="
M319.967041,122.648727 
	C317.896973,121.994087 315.424896,121.387016 313.501160,120.012482 
	C292.612457,105.087273 269.243652,97.226540 243.724686,98.228188 
	C216.650986,99.290848 191.978882,108.017876 172.701721,128.026077 
	C164.787918,136.239990 157.267654,145.124680 151.160446,154.717789 
	C142.449966,168.400024 139.124252,184.196808 137.328033,200.215591 
	C136.956161,203.531998 138.941147,204.694244 142.099960,203.042953 
	C157.679092,194.898911 174.373596,191.677292 191.780167,192.045685 
	C212.016815,192.473984 230.917908,197.824570 248.049561,208.747116 
	C251.512405,210.954910 253.961349,210.861633 257.445587,208.538437 
	C278.628326,194.414368 301.765869,186.257401 327.527893,188.167419 
	C337.097931,188.876953 346.539917,191.314499 356.436829,192.981796 
	C357.134583,194.100876 357.435791,195.202179 357.785156,196.652039 
	C354.482849,196.375748 351.108826,195.855896 347.785583,195.109955 
	C313.684570,187.455551 282.522156,193.912277 254.060852,214.758026 
	C251.601334,214.022293 249.230255,213.240372 247.142654,211.986450 
	C227.203232,200.010040 205.519913,194.791733 182.441666,196.135666 
	C165.185455,197.140533 148.922028,202.246536 133.466415,210.836166 
	C132.206314,183.752716 139.921188,159.288910 156.731522,137.774017 
	C175.013458,114.375656 198.920670,99.875404 228.098587,95.255638 
	C254.330917,91.102234 279.443420,95.683891 302.317200,109.789291 
	C308.413055,113.548393 313.999390,118.133865 319.967041,122.648727 
z"/>
<path fill="#AD5B86" opacity="1.000000" stroke="none" 
	d="
M355.898804,185.598999 
	C355.041656,184.608307 353.898163,183.307068 353.513824,181.810822 
	C350.388702,169.643616 345.286774,158.359528 338.788513,147.648361 
	C337.798584,146.016693 337.362946,144.048737 336.750000,141.865143 
	C346.162048,153.138031 351.430237,166.654327 354.994415,180.953415 
	C355.345337,182.361420 355.642273,183.782883 355.898804,185.598999 
z"/>
<path fill="#AD5B86" opacity="1.000000" stroke="none" 
	d="
M333.339722,136.916626 
	C332.376556,135.993408 331.238678,134.810196 330.071594,133.256226 
	C331.083252,134.142502 332.124115,135.399567 333.339722,136.916626 
z"/>
<path fill="#AD5B86" opacity="1.000000" stroke="none" 
	d="
M336.347473,140.931671 
	C335.568939,140.189072 334.624603,139.202332 333.754425,137.854462 
	C334.612915,138.558060 335.397308,139.622803 336.347473,140.931671 
z"/>
<path fill="#AD5B86" opacity="1.000000" stroke="none" 
	d="
M356.899780,190.661407 
	C356.488647,190.135620 356.143951,189.271317 355.953003,188.178802 
	C356.393219,188.741364 356.679718,189.532120 356.899780,190.661407 
z"/>
</svg>